<svg id="e0lHuht42fS1" xmlns="http://www.w3.org/2000/svg" xmlns:xlink="http://www.w3.org/1999/xlink" viewBox="0 0 640 480" shape-rendering="geometricPrecision" text-rendering="geometricPrecision"><g style="mix-blend-mode:overlay" transform="matrix(1.490163 0 0 1.111964-32.019127-24.988707)"><path d="M115.16358,178.89047c0,11.0028,9.73541,21.16048,20.48364,24.58037c55.01729,17.5055,113.36471-102.48432,66.91323-114.70839-35.31063-9.29227-33.74086,47.17397-32.77383,65.54765c2.49197,47.34736,84.99918,154.21641,46.42959,196.64296-23.65101,26.01611-116.54073-17.13015-66.91323-83.30014c3.28874-4.38499,7.84666-7.7154,12.29019-10.92461c41.12052-29.69815,27.44989,22.80572,49.16074,30.04268c3.05352,1.01784,7.42065,1.0401,9.55903-1.36558c4.11326-4.62742-.28616-20.05187,5.4623-17.75249c5.51049,2.2042,3.83318,13.45974,9.55903,15.02134c13.09231,3.57063,7.41178-16.83359,17.75249-10.92461c2.12831,1.21618.53866,5.73163,2.73115,6.82788c8.82399,4.412,21.38444-12.88365,30.04267-5.4623c1.86115,1.59527.37418,6.15446,2.73115,6.82788c2.55208.72917,4.55192-5.4623,6.82788-4.09673c2.34194,1.40517-2.591,7.32979,0,8.19346c3.11399,1.038,6.45377-2.6788,8.19346-5.4623c15.84875-25.358,17.28141-53.58619,23.21479-81.93457c1.25517-5.99692,12.31423-61.15857,6.82788-65.54765-2.77612-2.22089-5.06403,5.10671-6.82788,8.19346-3.73829,6.54201-7.05131,13.37843-9.55903,20.48364-12.95018,36.69219-5.4623,79.18237-5.4623,117.43955c0,.9499.62489,14.39644-1.36558,16.38691-8.40407,8.40407-31.54219,10.79547-43.69844,13.65576-2.80236.65938-7.49522-.06178-8.19346,2.73115-1.79719,7.18875,14.44515,3.80057,21.84922,4.09673c26.27942,1.05118,56.96399-2.86122,81.93457,5.4623" fill="none" stroke="black" opacity = "0.5" stroke-width="1.28"/></g></svg>